<?xml version="1.0" encoding="utf-8"?>
<!-- Generator: Adobe Illustrator 15.0.0, SVG Export Plug-In . SVG Version: 6.00 Build 0)  -->
<!DOCTYPE svg PUBLIC "-//W3C//DTD SVG 1.1//EN" "http://www.w3.org/Graphics/SVG/1.1/DTD/svg11.dtd">
<svg version="1.1" id="Capa_1" xmlns="http://www.w3.org/2000/svg" xmlns:xlink="http://www.w3.org/1999/xlink" x="0px" y="0px"
	 width="595.279px" height="595.102px" viewBox="0 0 595.279 595.102" enable-background="new 0 0 595.279 595.102"
	 xml:space="preserve">
<g>
	<g>
		<path fill="#21974E" d="M297.64,594.279c-27.385,0-53.773-3.57-79.172-10.715c-25.398-7.146-49.11-17.164-71.138-30.062
			c-22.024-12.896-42.064-28.375-60.124-46.432c-18.057-18.056-33.534-38.099-46.432-60.123
			c-12.897-22.027-22.918-45.738-30.062-71.137C3.572,350.414,0,324.023,0,296.64s3.571-53.774,10.715-79.172
			c7.146-25.399,17.164-49.111,30.062-71.136c12.896-22.025,28.375-42.066,46.432-60.123c18.06-18.057,38.101-33.534,60.124-46.432
			C169.358,26.88,193.07,16.859,218.47,9.715C243.867,2.571,270.258-1,297.641-1c40.876,0,79.47,7.838,115.782,23.514
			c36.312,15.676,67.859,36.908,94.647,63.695c26.787,26.788,48.021,58.337,63.695,94.649
			c15.675,36.312,23.513,74.905,23.513,115.782c0,27.383-3.569,53.772-10.715,79.172c-7.146,25.395-17.164,49.104-30.062,71.135
			c-12.896,22.024-28.375,42.067-46.433,60.125c-18.055,18.057-38.098,33.537-60.123,46.432
			c-22.025,12.896-45.735,22.918-71.139,30.062C351.413,590.709,325.023,594.279,297.64,594.279z M441.103,174.011H158.94
			c-2.778,0-5.159,0.895-7.146,2.68c-1.983,1.786-2.976,4.266-2.976,7.441v31.549c0,1.588,0.595,2.382,1.785,2.382l148.225,84.529
			l1.193,0.596c0.791,0,1.39-0.196,1.786-0.596l143.463-84.529c0.79-0.397,1.389-0.595,1.785-0.595c0.395,0,0.992-0.199,1.786-0.596
			c1.588,0,2.381-0.794,2.381-2.381v-30.359c0-3.175-0.993-5.654-2.979-7.44C446.26,174.905,443.882,174.011,441.103,174.011z
			 M238.707,300.807c0.397-0.396,0.598-0.992,0.598-1.785c0-1.192-0.397-1.785-1.19-1.785l-85.126-48.815
			c-1.19-0.396-2.183-0.396-2.976,0c-0.796,0-1.191,0.596-1.191,1.787v127.984c0,1.193,0.596,1.984,1.786,2.382h1.188
			c0.794,0,1.19-0.197,1.19-0.597L238.707,300.807z M342.286,310.332c-0.396-1.193-1.393-1.391-2.979-0.596l-32.74,19.049
			c-3.969,2.381-8.133,2.381-12.501,0l-28.573-16.068c-1.188-0.795-2.183-0.795-2.977,0L153.579,413.912
			c-0.396,0.396-0.596,1.191-0.596,2.379c0,0.396,0.396,0.994,1.189,1.785c2.383,0.795,3.97,1.195,4.764,1.195h279.188
			c0.796,0,1.592-0.398,2.383-1.195c0-1.586-0.198-2.576-0.597-2.975L342.286,310.332z M449.437,246.041h-2.379L366.1,294.259
			c-0.791,0-1.19,0.595-1.19,1.785c-0.396,0.397-0.196,0.992,0.595,1.784l80.958,87.508c0.794,0.795,1.389,1.193,1.783,1.193h1.191
			c1.193-1.193,1.788-1.984,1.788-2.381V248.423C451.222,247.628,450.629,246.835,449.437,246.041z"/>
	</g>
</g>
</svg>
